<svg width="24" height="24" viewBox="0 0 24 24" fill="none" xmlns="http://www.w3.org/2000/svg">
<circle cx="12" cy="12" r="10.5" fill="#C79938" fill-opacity="0.1" stroke="#C79938"/>
<circle cx="12" cy="12" r="8.25" stroke="#FDBD5C" stroke-opacity="0.4" stroke-width="0.5" stroke-dasharray="16 8"/>
<path d="M12.1848 8.55692L12.1857 8.556C13.4517 7.29061 15.2122 6.84062 16.7772 7.2227C17.1596 8.7869 16.7093 10.5463 15.4432 11.8116C15.4257 11.8291 15.4081 11.8465 15.3904 11.8637L14.6942 12.5596L15.2698 13.576C15.3553 13.7269 15.3964 13.899 15.3883 14.0722C15.3803 14.2455 15.3234 14.413 15.2243 14.5554L13.7095 16.7322C13.419 17.1496 12.8448 17.2527 12.427 16.9624C12.4118 16.9518 12.397 16.9408 12.3825 16.9293L12.3864 16.9244C12.2799 16.8579 12.2025 16.7537 12.1695 16.6326C12.1365 16.5116 12.1503 16.3825 12.2082 16.2712C12.2078 16.2711 12.2075 16.2709 12.2071 16.2708C12.507 15.7591 12.5432 15.0898 12.3396 14.4068C11.596 14.5726 10.7862 14.3661 10.2076 13.7879C9.62912 13.2098 9.42265 12.4007 9.58819 11.6576C8.90523 11.4544 8.23586 11.4907 7.72412 11.7902C7.72397 11.7899 7.72381 11.7895 7.72366 11.7892C7.61228 11.847 7.48317 11.8608 7.36205 11.8279C7.24094 11.7949 7.1367 11.7175 7.0701 11.6111L7.06581 11.6145C6.78494 11.2532 6.81051 10.731 7.14259 10.3991C7.18121 10.3605 7.2232 10.3254 7.26804 10.2943L9.4473 8.77946C9.58947 8.68063 9.75664 8.62385 9.92962 8.61562C10.1026 8.6074 10.2744 8.64806 10.4253 8.73296L11.4379 9.30265L12.1621 8.57887C12.1695 8.57135 12.1771 8.56406 12.1848 8.55692ZM9.04751 13.0995C9.26195 13.651 9.49483 14.0523 9.74605 14.3034C9.99213 14.5493 10.371 14.7663 10.8829 14.9543C10.9218 14.9686 10.9561 14.9931 10.9822 15.0253C11.0083 15.0574 11.0253 15.096 11.0313 15.137C11.0373 15.178 11.0322 15.2198 11.0164 15.2581C11.0006 15.2964 10.9748 15.3297 10.9416 15.3546L10.0675 16.0097C10.0296 16.0381 9.98387 16.0541 9.93651 16.0556C9.88915 16.0571 9.84249 16.0439 9.80289 16.0179C9.76329 15.9919 9.73268 15.9543 9.71522 15.9103C9.69777 15.8663 9.69433 15.8179 9.70536 15.7719L9.74352 15.6127C9.75391 15.5694 9.7515 15.524 9.73659 15.482C9.72167 15.44 9.69488 15.4033 9.65947 15.3762C9.62407 15.3491 9.58156 15.3329 9.53711 15.3295C9.49266 15.3261 9.44818 15.3357 9.40906 15.3571L8.63811 15.7782C8.59444 15.802 8.54422 15.8111 8.49497 15.804C8.44571 15.7969 8.40008 15.7741 8.36489 15.7389C8.3297 15.7038 8.30685 15.6582 8.29976 15.6089C8.29266 15.5597 8.30171 15.5095 8.32554 15.4659L8.77517 14.6436C8.79568 14.6061 8.80534 14.5636 8.80308 14.5209C8.80082 14.4783 8.78672 14.4371 8.76235 14.4019C8.73799 14.3668 8.70433 14.3392 8.66514 14.3221C8.62595 14.305 8.58277 14.2992 8.54045 14.3052L8.15263 14.3607C8.10753 14.3672 8.06152 14.3601 8.02043 14.3404C7.97934 14.3207 7.94501 14.2893 7.92179 14.2501C7.89857 14.2109 7.8875 14.1658 7.88998 14.1203C7.89246 14.0748 7.90838 14.0311 7.93573 13.9947L8.64848 13.0448C8.67312 13.012 8.70611 12.9863 8.74401 12.9705C8.78192 12.9547 8.82336 12.9493 8.86406 12.9549C8.90475 12.9605 8.94321 12.9768 8.97545 13.0022C9.00769 13.0277 9.03254 13.0613 9.04743 13.0995H9.04751ZM13.3025 10.6954C13.6623 11.0551 14.2457 11.0551 14.6055 10.6954C14.9654 10.3359 14.9654 9.75287 14.6055 9.3932C14.2457 9.03361 13.6623 9.03361 13.3025 9.3932C12.9427 9.75287 12.9427 10.3359 13.3025 10.6954Z" fill="white"/>
</svg>
