<svg width="24" height="24" viewBox="0 0 24 24" fill="none" xmlns="http://www.w3.org/2000/svg">
<circle cx="12" cy="12" r="10.5" fill="#C79938" fill-opacity="0.1" stroke="#C79938"/>
<circle cx="12" cy="12" r="8.25" stroke="#FDBD5C" stroke-opacity="0.4" stroke-width="0.5" stroke-dasharray="16 8"/>
<path d="M16.5818 7.64699V12.984C16.5818 13.3041 16.5062 13.6224 16.3555 13.9388C16.2043 14.2562 16.0069 14.5626 15.7624 14.8604C15.5179 15.1578 15.2386 15.4396 14.9248 15.7051C14.6107 15.971 14.2924 16.2078 13.9696 16.4154C13.6463 16.6235 13.3326 16.7965 13.0279 16.934C12.7232 17.0715 12.4561 17.1658 12.2266 17.2172L12.1179 17.2364L12.0183 17.2172C11.7829 17.1658 11.5099 17.0715 11.1989 16.934C10.8879 16.7965 10.5651 16.6235 10.2301 16.4154C9.89505 16.2078 9.56637 15.971 9.24312 15.7051C8.92032 15.4396 8.63194 15.1578 8.37841 14.8604C8.12488 14.5626 7.9198 14.2562 7.76315 13.9388C7.6056 13.6224 7.52728 13.3041 7.52728 12.984V7.64699L7.89852 7.58917L12.0636 6.76364L16.3102 7.58917L16.5818 7.64699ZM12.065 7.53635L12.0147 7.52587L8.43998 8.17017V11.5374H12.065V7.53635ZM15.6691 11.5374H12.065V16.3302C12.2968 16.2738 12.5489 16.1877 12.8215 16.0716C13.0936 15.9555 13.3625 15.8185 13.6278 15.66C13.8935 15.5015 14.1489 15.3258 14.3947 15.1323C14.6405 14.9387 14.8574 14.7307 15.0471 14.5089C15.2363 14.2876 15.3871 14.0572 15.4998 13.8177C15.613 13.5787 15.6691 13.3355 15.6691 13.0892V11.5374Z" fill="white"/>
</svg>
