<svg width="24" height="24" viewBox="0 0 24 24" fill="none" xmlns="http://www.w3.org/2000/svg">
<circle cx="12" cy="12" r="10.5" fill="#C79938" fill-opacity="0.1" stroke="#C79938"/>
<circle cx="12" cy="12" r="8.25" stroke="#FDBD5C" stroke-opacity="0.4" stroke-width="0.5" stroke-dasharray="16 8"/>
<path d="M12.0006 9.5C11.7039 9.50012 11.4138 9.41223 11.167 9.24746C10.9202 9.08268 10.7279 8.84842 10.6143 8.57431C10.5007 8.30019 10.4709 7.99854 10.5288 7.70751C10.5866 7.41649 10.7295 7.14916 10.9393 6.93934C11.1491 6.72953 11.4165 6.58665 11.7075 6.52879C11.9985 6.47093 12.3002 6.50069 12.5743 6.6143C12.8484 6.7279 13.0827 6.92026 13.2474 7.16702C13.4122 7.41379 13.5001 7.70388 13.5 8.00061C13.4995 8.39812 13.3414 8.77922 13.0603 9.06031C12.7792 9.34139 12.3981 9.49952 12.0006 9.5Z" fill="white"/>
<path d="M12.1298 17C11.8928 17.0008 11.6579 16.9547 11.4388 16.8643C11.2197 16.7739 11.0207 16.6411 10.8533 16.4735L7.53197 13.1736C7.36073 13.0028 7.22548 12.7996 7.13415 12.5758C7.04283 12.3521 6.99729 12.1124 7.00022 11.8708C7.00315 11.6293 7.05448 11.3907 7.15119 11.1693C7.24791 10.9478 7.38805 10.7479 7.56337 10.5813L7.61153 10.536C7.94999 10.2146 8.40005 10.0364 8.86731 10.0388C9.33456 10.0413 9.78271 10.2242 10.1177 10.5493L11.3286 11.7166C11.5209 11.9007 11.7781 12.002 12.0446 11.9986C12.311 11.9952 12.5655 11.8874 12.7531 11.6985L13.9486 10.4859C14.2857 10.1725 14.7297 9.99875 15.1905 10C15.6513 10.0013 16.0943 10.1775 16.4297 10.4928C16.7651 10.8081 16.9678 11.2389 16.9965 11.6978C17.0253 12.1567 16.878 12.6094 16.5846 12.964L13.4768 16.4031C13.3132 16.5858 13.1137 16.7329 12.8908 16.8354C12.6679 16.938 12.4262 16.9938 12.1808 16.9993L12.1298 17Z" fill="white"/>
</svg>
