<svg width="32" height="32" viewBox="0 0 32 32" fill="none" xmlns="http://www.w3.org/2000/svg">
<circle cx="16" cy="16" r="15" fill="#4B48E9"/>
<path fill-rule="evenodd" clip-rule="evenodd" d="M21.7304 9H10.2696C9.02143 9 8 10.0214 8 11.2696V20.4429C8 21.6929 9.02143 22.7143 10.2696 22.7143H13.7143L16 25L18.2857 22.7143H21.7304C22.9786 22.7143 24 21.6929 24 20.4446V11.2696C24 10.0214 22.9786 9 21.7304 9ZM11 13.5C11 13.2239 11.2239 13 11.5 13H20.5C20.7761 13 21 13.2239 21 13.5C21 13.7761 20.7761 14 20.5 14H11.5C11.2239 14 11 13.7761 11 13.5ZM11.5 17C11.2239 17 11 17.2239 11 17.5C11 17.7761 11.2239 18 11.5 18H17.5C17.7761 18 18 17.7761 18 17.5C18 17.2239 17.7761 17 17.5 17H11.5Z" fill="white"/>
</svg>
