<svg width="24" height="24" viewBox="0 0 24 24" fill="none" xmlns="http://www.w3.org/2000/svg">
<path d="M18.2743 3.88421C18.0977 3.79628 17.9014 3.75003 17.7016 3.75L18.2743 3.88421ZM18.2743 3.88421C18.4509 3.97211 18.602 4.09876 18.7164 4.25251M18.2743 3.88421L18.7164 4.25251M18.7164 4.25251L21.6616 8.21223C22.033 8.71158 22.2178 9.32523 22.1839 9.94663C22.1501 10.5664 21.9009 11.1548 21.4794 11.6104L12.9318 20.8475C12.9318 20.8475 12.9318 20.8475 12.9318 20.8475C12.8157 20.973 12.673 21.0743 12.5123 21.144C12.3516 21.2137 12.177 21.25 12 21.25C11.823 21.25 11.6484 21.2137 11.4877 21.144C11.327 21.0743 11.1843 20.973 11.0682 20.8475C11.0682 20.8475 11.0682 20.8475 11.0682 20.8475L2.52062 11.6104C2.09908 11.1548 1.84989 10.5664 1.8161 9.94663C1.78221 9.32523 1.96702 8.71158 2.33842 8.21223L5.28363 4.25251C5.28365 4.25249 5.28367 4.25246 5.28369 4.25243C5.39807 4.09872 5.54917 3.9721 5.72569 3.88421C5.90228 3.79628 6.09857 3.75003 6.29837 3.75C6.29839 3.75 6.29841 3.75 6.29843 3.75L17.7016 3.75L18.7164 4.25251Z" stroke="white" stroke-opacity="0.7" stroke-width="1.5"/>
<path d="M15.6427 11.2405C15.783 11.0954 15.977 11.0092 16.1828 11.0007C16.3886 10.9922 16.5896 11.062 16.7423 11.195C16.895 11.328 16.9871 11.5135 16.9987 11.7114C17.0104 11.9093 16.9406 12.1037 16.8045 12.2524L12.5738 16.752C12.5004 16.8301 12.4107 16.8925 12.3107 16.9352C12.2106 16.9779 12.1024 17 11.9929 17C11.8835 17 11.7753 16.9779 11.6752 16.9352C11.5752 16.8925 11.4855 16.8301 11.4121 16.752L7.19555 12.2675C7.05941 12.1188 6.98961 11.9244 7.00125 11.7265C7.01289 11.5286 7.10503 11.3431 7.25774 11.2101C7.41045 11.0771 7.61143 11.0073 7.81721 11.0158C8.02299 11.0243 8.21701 11.1104 8.35729 11.2556L11.9929 15.1223L15.6427 11.2405Z" fill="white" fill-opacity="0.7"/>
</svg>
