<svg width="24" height="24" viewBox="0 0 24 24" fill="none" xmlns="http://www.w3.org/2000/svg">
<path d="M17.51 3C17.8147 3.00003 18.115 3.07295 18.3865 3.21282C18.658 3.3527 18.893 3.55555 19.0722 3.80483L22.6304 8.755C22.8913 9.11799 23.0209 9.56078 22.9973 10.009C22.9736 10.4572 22.7983 10.8836 22.5007 11.2164L13.4324 21.3569C13.2513 21.5594 13.0303 21.7213 12.7835 21.832C12.5368 21.9428 12.2699 22 12 22C11.7301 22 11.4632 21.9428 11.2164 21.832C10.9697 21.7213 10.7487 21.5594 10.5676 21.3569L1.49934 11.2164C1.20171 10.8836 1.02636 10.4572 1.00274 10.009C0.97912 9.56078 1.10867 9.11799 1.36962 8.755L4.9278 3.80483C5.10702 3.55555 5.34197 3.3527 5.61347 3.21282C5.88496 3.07295 6.18529 3.00003 6.48995 3L17.51 3Z" fill="url(#paint0_linear_4517_871)"/>
<path d="M15.6427 11.2405C15.783 11.0954 15.977 11.0092 16.1828 11.0007C16.3886 10.9922 16.5896 11.062 16.7423 11.195C16.895 11.328 16.9871 11.5135 16.9987 11.7114C17.0104 11.9093 16.9406 12.1037 16.8045 12.2524L12.5738 16.752C12.5004 16.8301 12.4107 16.8925 12.3107 16.9352C12.2106 16.9779 12.1024 17 11.9929 17C11.8835 17 11.7753 16.9779 11.6752 16.9352C11.5752 16.8925 11.4855 16.8301 11.4121 16.752L7.19555 12.2675C7.05941 12.1188 6.98961 11.9244 7.00125 11.7265C7.01289 11.5286 7.10503 11.3431 7.25774 11.2101C7.41045 11.0771 7.61143 11.0073 7.81721 11.0158C8.02299 11.0243 8.21701 11.1104 8.35729 11.2556L11.9929 15.1223L15.6427 11.2405Z" fill="#8C5F00"/>
<defs>
<linearGradient id="paint0_linear_4517_871" x1="12" y1="3" x2="12" y2="22" gradientUnits="userSpaceOnUse">
<stop stop-color="#C79938"/>
<stop offset="1" stop-color="#FFD477"/>
</linearGradient>
</defs>
</svg>
