<svg width="32" height="32" viewBox="0 0 32 32" fill="none" xmlns="http://www.w3.org/2000/svg">
<circle cx="16" cy="16" r="15" fill="#3C85F3"/>
<path d="M16.9522 14.4167C17.1952 14.4169 17.4282 14.5136 17.6001 14.6854C17.7719 14.8573 17.8686 15.0903 17.8688 15.3333C17.8688 15.4549 17.9171 15.5715 18.0031 15.6574C18.089 15.7434 18.2056 15.7917 18.3272 15.7917C18.4487 15.7917 18.5653 15.7434 18.6513 15.6574C18.7372 15.5715 18.7855 15.4549 18.7855 15.3333C18.785 14.8473 18.5916 14.3813 18.2479 14.0376C17.9042 13.6939 17.4382 13.5005 16.9522 13.5C16.8306 13.5 16.714 13.5483 16.6281 13.6342C16.5421 13.7202 16.4938 13.8368 16.4938 13.9583C16.4938 14.0799 16.5421 14.1965 16.6281 14.2824C16.714 14.3684 16.8306 14.4167 16.9522 14.4167ZM23.709 12.4788C23.1484 11.1502 22.2082 10.0166 21.0063 9.21996C19.8044 8.42327 18.3941 7.9989 16.9522 8C16.8306 8 16.714 8.04829 16.6281 8.13424C16.5421 8.2202 16.4938 8.33678 16.4938 8.45834C16.4938 8.57989 16.5421 8.69647 16.6281 8.78243C16.714 8.86838 16.8306 8.91667 16.9522 8.91667C20.4899 8.91667 23.3688 11.7956 23.3688 15.3333C23.3688 15.4549 23.4171 15.5715 23.5031 15.6574C23.589 15.7434 23.7056 15.7917 23.8272 15.7917C23.9487 15.7917 24.0653 15.7434 24.1513 15.6574C24.2372 15.5715 24.2855 15.4549 24.2855 15.3333C24.2874 14.3527 24.0913 13.3818 23.709 12.4788ZM16.9522 11.6667C18.974 11.6667 20.6188 13.3115 20.6188 15.3333C20.6188 15.4549 20.6671 15.5715 20.7531 15.6574C20.839 15.7434 20.9556 15.7917 21.0772 15.7917C21.1987 15.7917 21.3153 15.7434 21.4013 15.6574C21.4872 15.5715 21.5355 15.4549 21.5355 15.3333C21.5355 14.7314 21.417 14.1354 21.1866 13.5794C20.9563 13.0233 20.6187 12.518 20.1931 12.0924C19.7675 11.6668 19.2622 11.3292 18.7061 11.0989C18.1501 10.8686 17.5541 10.75 16.9522 10.75C16.8306 10.75 16.714 10.7983 16.6281 10.8842C16.5421 10.9702 16.4938 11.0868 16.4938 11.2083C16.4938 11.3299 16.5421 11.4465 16.6281 11.5324C16.714 11.6184 16.8306 11.6667 16.9522 11.6667Z" fill="white"/>
<path d="M21.7075 21.8932C21.8948 22.0809 22 22.3353 22 22.6005C22 22.8657 21.8948 23.1201 21.7075 23.3078L21.0001 24.0152C20.4774 24.5379 19.7899 24.8563 18.9566 24.9617C18.75 24.9876 18.5419 25.0003 18.3337 25C17.7272 25 17.0728 24.8976 16.3802 24.6939C14.5001 24.1413 12.5228 22.895 10.814 21.1858C9.10528 19.4765 7.85857 17.4997 7.306 15.6195C7.0309 14.6827 6.94036 13.8159 7.03815 13.0434C7.14356 12.2101 7.46193 11.5226 7.98462 10.9999L8.692 10.2925C8.87975 10.1052 9.13412 10 9.39932 10C9.66452 10 9.9189 10.1052 10.1066 10.2925L13.2192 13.405C13.4065 13.5927 13.5117 13.8471 13.5117 14.1124C13.5117 14.3776 13.4065 14.632 13.2192 14.8198L12.5118 15.5267C12.1116 15.9268 12.5099 17.2226 13.6436 18.3561C14.7772 19.4897 16.0723 19.8886 16.473 19.488L17.1804 18.7806C17.3681 18.5932 17.6225 18.4881 17.8877 18.4881C18.153 18.4881 18.4074 18.5932 18.5951 18.7806L21.7075 21.8932Z" fill="white"/>
</svg>
