<svg width="16" height="16" viewBox="0 0 16 16" fill="none" xmlns="http://www.w3.org/2000/svg">
<path d="M8 15C4.1338 15 1 11.8662 1 8C1 4.1338 4.1338 1 8 1C11.8662 1 15 4.1338 15 8C15 11.8662 11.8662 15 8 15ZM8 11.9375C8.25944 11.9375 8.46988 11.8535 8.63175 11.6859C8.79362 11.5179 8.875 11.3101 8.875 11.0625C8.875 10.8149 8.79407 10.611 8.63175 10.4513C8.46987 10.2912 8.25944 10.2037 8 10.1875C7.65962 10.2037 7.4085 10.3555 7.24663 10.6429C7.08475 10.9308 7.08475 11.2182 7.24663 11.5061C7.4085 11.7936 7.65962 11.9375 8 11.9375ZM8.67025 9.07931C8.67025 9.02901 8.65275 8.88463 8.65493 8.90519C8.637 8.72319 8.66107 8.56131 8.76081 8.40513C8.83344 8.29094 8.94588 8.18375 9.11388 8.08444C10.1017 7.50081 10.4631 6.85068 10.4426 6.17431C10.412 5.16106 9.66556 4.16663 8.04682 4.15218C6.69361 4.1395 5.80418 4.79312 5.59376 6.02031C5.56892 6.18979 5.61132 6.36226 5.71192 6.50089C5.81251 6.63952 5.96332 6.73333 6.13214 6.76229C6.30096 6.79124 6.47441 6.75305 6.61545 6.65586C6.75649 6.55867 6.85394 6.41019 6.88699 6.24212C6.98282 5.6865 7.29388 5.4577 8.03456 5.46425C8.84699 5.47169 9.11956 5.83481 9.13094 6.21325C9.13376 6.27833 9.11633 6.34268 9.08106 6.39744C8.9905 6.56018 8.79405 6.7492 8.44669 6.95438C8.10324 7.15694 7.83899 7.40894 7.6535 7.70032C7.36518 8.15313 7.3022 8.60113 7.35119 9.05656C7.35862 9.12525 7.35776 9.1165 7.35776 9.07932C7.35734 9.16577 7.374 9.25145 7.4068 9.33143C7.43959 9.41142 7.48786 9.48414 7.54884 9.54542C7.60982 9.60669 7.6823 9.65532 7.76213 9.68849C7.84196 9.72167 7.92756 9.73875 8.014 9.73875C8.10045 9.73875 8.18605 9.72167 8.26587 9.68849C8.3457 9.65532 8.41819 9.60669 8.47917 9.54542C8.54015 9.48414 8.58842 9.41142 8.62121 9.33143C8.654 9.25145 8.67067 9.16577 8.67025 9.07932V9.07931Z" fill="#C4C4C4"/>
</svg>
