<svg width="24" height="24" viewBox="0 0 24 24" fill="none" xmlns="http://www.w3.org/2000/svg">
<path fill-rule="evenodd" clip-rule="evenodd" d="M18.8942 8.26726C18.2223 8.26726 17.6774 8.82057 17.6774 9.50309V14.3326C17.6774 15.0152 18.2223 15.5685 18.8942 15.5685C19.5663 15.5685 20.1111 15.0152 20.1111 14.3326V9.50309C20.1111 8.82057 19.5664 8.26726 18.8942 8.26726ZM4.21684 8.26726C3.54483 8.26726 3 8.82057 3 9.50309V14.3326C3 15.0152 3.54483 15.5685 4.21684 15.5685C4.88886 15.5685 5.43369 15.0152 5.43369 14.3326V9.50309C5.43369 8.82057 4.88886 8.26726 4.21684 8.26726ZM6.16595 8.30465V17.1282C6.16595 17.6523 6.5908 18.0771 7.1149 18.0771H8.199V20.7641C8.199 21.4467 8.74383 22 9.41584 22C10.0879 22 10.6327 21.4467 10.6327 20.7641V18.0771H12.5266V20.7641C12.5266 21.4467 13.0715 22 13.7435 22C14.4155 22 14.9604 21.4467 14.9604 20.7641V18.0771H16.0444C16.5686 18.0771 16.9934 17.6523 16.9934 17.1282V8.30465H6.16597H6.16595ZM14.122 3.73247L15.1222 2.28057C15.1816 2.19433 15.1668 2.08106 15.0892 2.02758C15.0116 1.97415 14.9005 2.00069 14.8412 2.08698L13.8022 3.59514C13.1176 3.32542 12.3569 3.17509 11.5555 3.17509C10.7542 3.17509 9.99352 3.3254 9.30888 3.59514L8.26993 2.08698C8.21053 2.00069 8.09947 1.97417 8.02185 2.02758C7.94423 2.08108 7.92951 2.19435 7.98888 2.28057L8.98908 3.73247C7.39893 4.47222 6.28374 5.87779 6.14181 7.51835H16.9693C16.8273 5.87779 15.7121 4.47222 14.122 3.73247ZM9.27156 6.02067C8.94072 6.02067 8.6725 5.75251 8.6725 5.42161C8.6725 5.09077 8.9407 4.82254 9.27156 4.82254C9.60244 4.82254 9.87062 5.09075 9.87062 5.42161C9.87062 5.75249 9.60246 6.02067 9.27156 6.02067ZM13.9144 6.02067C13.5836 6.02067 13.3154 5.75251 13.3154 5.42161C13.3154 5.09077 13.5836 4.82254 13.9144 4.82254C14.2454 4.82254 14.5135 5.09075 14.5135 5.42161C14.5135 5.75249 14.2454 6.02067 13.9144 6.02067Z" fill="url(#paint0_linear_4764_22924)"/>
<defs>
<linearGradient id="paint0_linear_4764_22924" x1="3" y1="2" x2="21.749" y2="3.67593" gradientUnits="userSpaceOnUse">
<stop stop-color="#5BD38B"/>
<stop offset="1" stop-color="#C6F5C5"/>
</linearGradient>
</defs>
</svg>
