<svg width="48" height="48" viewBox="0 0 48 48" fill="none" xmlns="http://www.w3.org/2000/svg">
<circle cx="24" cy="24" r="22.5" fill="url(#paint0_linear_4857_947)"/>
<path fill-rule="evenodd" clip-rule="evenodd" d="M25.3306 11.5935C24.53 10.5584 22.9673 10.5584 22.1667 11.5936L21.8487 12.0047C21.2997 12.7144 20.3451 12.9717 19.5138 12.6339L19.0503 12.4456C17.8456 11.956 16.5014 12.7283 16.3175 14.0156L16.2315 14.6175C16.1064 15.4931 15.421 16.1826 14.5462 16.3128L13.9835 16.3966C12.7138 16.5857 11.9485 17.9051 12.4147 19.1012L12.6603 19.7312C12.9769 20.5435 12.7309 21.4672 12.0522 22.0145L11.5412 22.4265C10.5484 23.227 10.5484 24.7398 11.5412 25.5403L12.0522 25.9523C12.7309 26.4995 12.9769 27.4233 12.6603 28.2356L12.4147 28.8656C11.9485 30.0617 12.7138 31.3811 13.9835 31.5702L14.5462 31.654C15.421 31.7842 16.1064 32.4737 16.2315 33.3493L16.3175 33.9512C16.5014 35.2385 17.8456 36.0108 19.0503 35.5212L19.5138 35.3329C20.3451 34.9951 21.2997 35.2524 21.8487 35.9621L22.1667 36.3732C22.9673 37.4084 24.53 37.4084 25.3306 36.3732L25.6486 35.9621C26.1976 35.2524 27.1522 34.9951 27.9835 35.3329L28.447 35.5212C29.6517 36.0108 30.9959 35.2385 31.1798 33.9512L31.2658 33.3493C31.3909 32.4737 32.0763 31.7842 32.9511 31.654L33.5138 31.5702C34.7835 31.3811 35.5488 30.0617 35.0826 28.8656L34.837 28.2356C34.5204 27.4233 34.7664 26.4995 35.4451 25.9523L35.9561 25.5403C36.9489 24.7398 36.9489 23.227 35.9561 22.4265L35.4451 22.0145C34.7664 21.4672 34.5204 20.5435 34.837 19.7312L35.0826 19.1012C35.5488 17.9051 34.7835 16.5857 33.5138 16.3966L32.9511 16.3128C32.0763 16.1826 31.3909 15.4931 31.2658 14.6175L31.1798 14.0156C30.9959 12.7283 29.6517 11.956 28.447 12.4456L27.9835 12.6339C27.1522 12.9717 26.1976 12.7144 25.6486 12.0047L25.3306 11.5935ZM20.8037 27.4662C20.4979 28.0071 20.6839 28.7013 21.2191 29.0168C21.7544 29.3323 22.4362 29.1496 22.7421 28.6088L27.5413 20.1218C27.8472 19.5809 27.6612 18.8867 27.1259 18.5712C26.5907 18.2557 25.9089 18.4384 25.603 18.9792L20.8037 27.4662ZM21 21C21 21.8284 20.3284 22.5 19.5 22.5C18.6716 22.5 18 21.8284 18 21C18 20.1715 18.6716 19.5 19.5 19.5C20.3284 19.5 21 20.1715 21 21ZM28.5 28.5C29.3284 28.5 30 27.8284 30 27C30 26.1715 29.3284 25.5 28.5 25.5C27.6716 25.5 27 26.1715 27 27C27 27.8284 27.6716 28.5 28.5 28.5Z" fill="url(#paint1_linear_4857_947)"/>
<defs>
<linearGradient id="paint0_linear_4857_947" x1="69" y1="23.235" x2="22.4699" y2="-21.765" gradientUnits="userSpaceOnUse">
<stop stop-color="#B802F8"/>
<stop offset="1" stop-color="#FF70A3"/>
</linearGradient>
<linearGradient id="paint1_linear_4857_947" x1="23.7487" y1="10.8172" x2="23.7487" y2="37.1496" gradientUnits="userSpaceOnUse">
<stop stop-color="white"/>
<stop offset="1" stop-color="white" stop-opacity="0.6"/>
</linearGradient>
</defs>
</svg>
