<svg width="48" height="48" viewBox="0 0 48 48" fill="none" xmlns="http://www.w3.org/2000/svg">
<circle cx="24" cy="24" r="22.5" fill="url(#paint0_linear_4857_929)"/>
<path fill-rule="evenodd" clip-rule="evenodd" d="M10.8 15.1999C10.8 14.0954 11.6955 13.2 12.8 13.2H35.2001C36.3046 13.2 37.2001 14.0954 37.2001 15.2V18H10.8V15.1999ZM10.8 20.3999H37.2001V32.7999C37.2001 33.9045 36.3046 34.7999 35.2001 34.7999H12.8C11.6955 34.7999 10.8 33.9045 10.8 32.7999V20.3999ZM24.6181 26.3999C24.2393 26.3999 23.893 26.6139 23.7236 26.9527L22.3236 29.7527C21.9912 30.4176 22.4747 31.1999 23.2181 31.1999H23.382C23.7608 31.1999 24.107 30.9859 24.2764 30.6471L25.6764 27.8471C26.0089 27.1822 25.5254 26.3999 24.782 26.3999H24.6181ZM28.2181 26.3999C27.8393 26.3999 27.493 26.6139 27.3236 26.9527L25.9236 29.7527C25.5912 30.4176 26.0747 31.1999 26.8181 31.1999H26.982C27.3608 31.1999 27.707 30.9859 27.8764 30.6471L29.2764 27.8471C29.6089 27.1822 29.1254 26.3999 28.382 26.3999H28.2181ZM30.9236 26.9527C31.093 26.6139 31.4393 26.3999 31.8181 26.3999H31.982C32.7254 26.3999 33.2089 27.1822 32.8764 27.8471L31.4764 30.6471C31.307 30.9859 30.9608 31.1999 30.582 31.1999H30.4181C29.6747 31.1999 29.1912 30.4176 29.5236 29.7527L30.9236 26.9527Z" fill="url(#paint1_linear_4857_929)"/>
<defs>
<linearGradient id="paint0_linear_4857_929" x1="69" y1="23.235" x2="22.4699" y2="-21.765" gradientUnits="userSpaceOnUse">
<stop stop-color="#F8AD02"/>
<stop offset="1" stop-color="#FFE370"/>
</linearGradient>
<linearGradient id="paint1_linear_4857_929" x1="24" y1="13.2" x2="24" y2="34.7999" gradientUnits="userSpaceOnUse">
<stop stop-color="white"/>
<stop offset="1" stop-color="white" stop-opacity="0.6"/>
</linearGradient>
</defs>
</svg>
