<svg width="24" height="24" viewBox="0 0 24 24" fill="none" xmlns="http://www.w3.org/2000/svg">
<path fill-rule="evenodd" clip-rule="evenodd" d="M14.9608 4.77124C16.244 3.41151 15.977 2 15.977 2C15.977 2 14.1812 2.00735 12.8895 3.50865C11.7409 4.84369 12.0333 5.98556 12.0333 5.98556C12.0333 5.98556 13.5907 6.22313 14.9608 4.77124ZM19.4785 8.68581C19.4785 8.68581 18.3933 6.66668 15.6346 6.66668C14.6594 6.66668 13.8217 7.01399 13.1658 7.28594C12.7438 7.46095 12.3971 7.60468 12.1373 7.60468C11.8135 7.60468 11.4229 7.44995 10.9691 7.27007C10.3395 7.02063 9.5882 6.72293 8.72447 6.72293C6.43789 6.72293 4 8.82888 4 12.8435C4 16.9239 6.88015 22 9.15993 22C9.51453 22 9.9538 21.8363 10.4408 21.6547C11.0466 21.4289 11.7262 21.1755 12.4087 21.1755C13.0207 21.1755 13.5515 21.3794 14.0753 21.5807C14.5855 21.7768 15.0892 21.9703 15.6551 21.9703C18.1517 21.9703 20 16.6191 20 16.6191C20 16.6191 17.3559 15.5661 17.3559 12.5106C17.3559 9.80201 19.4785 8.68581 19.4785 8.68581Z" fill="url(#paint0_linear_4764_22923)"/>
<defs>
<linearGradient id="paint0_linear_4764_22923" x1="4" y1="2" x2="21.5491" y2="3.46681" gradientUnits="userSpaceOnUse">
<stop stop-color="#6B7CFF"/>
<stop offset="1" stop-color="#BFC6FF"/>
</linearGradient>
</defs>
</svg>
