<svg width="48" height="48" viewBox="0 0 48 48" fill="none" xmlns="http://www.w3.org/2000/svg">
<circle cx="24" cy="24" r="22.5" fill="url(#paint0_linear_4857_907)"/>
<path fill-rule="evenodd" clip-rule="evenodd" d="M15.6 14C15.6 12.8954 16.4954 12 17.6 12H30.4C31.5046 12 32.4 12.8954 32.4 14V24H36.3005C38.1533 24 39.0101 26.3017 37.6082 27.5132L25.3077 38.1434C24.5567 38.7924 23.4433 38.7924 22.6923 38.1434L10.3918 27.5132C8.98992 26.3017 9.8467 24 11.6995 24H15.6V14ZM19.616 18.4929C19.2254 18.8834 19.2254 19.5166 19.616 19.9071L22.5089 22.8H20.2C19.6477 22.8 19.2 23.2477 19.2 23.8V24.2C19.2 24.7523 19.6477 25.2 20.2 25.2H22.8V26.4H20.2C19.6477 26.4 19.2 26.8477 19.2 27.4V27.8C19.2 28.3523 19.6477 28.8 20.2 28.8H22.8V31.4C22.8 31.9523 23.2477 32.4 23.8 32.4H24.2C24.7523 32.4 25.2 31.9523 25.2 31.4V28.8H27.8C28.3523 28.8 28.8 28.3523 28.8 27.8V27.4C28.8 26.8477 28.3523 26.4 27.8 26.4H25.2V25.2H27.8C28.3523 25.2 28.8 24.7523 28.8 24.2V23.8C28.8 23.2477 28.3523 22.8 27.8 22.8H25.4911L28.3841 19.9071C28.7746 19.5166 28.7746 18.8834 28.3841 18.4929L28.1012 18.21C27.7107 17.8195 27.0775 17.8195 26.687 18.21L24 20.8971L21.313 18.21C20.9225 17.8195 20.2893 17.8195 19.8988 18.21L19.616 18.4929Z" fill="url(#paint1_linear_4857_907)"/>
<defs>
<linearGradient id="paint0_linear_4857_907" x1="-21" y1="24" x2="24" y2="69" gradientUnits="userSpaceOnUse">
<stop stop-color="#FF8496"/>
<stop offset="1" stop-color="#DD3D34"/>
</linearGradient>
<linearGradient id="paint1_linear_4857_907" x1="24" y1="12" x2="24" y2="38.6301" gradientUnits="userSpaceOnUse">
<stop stop-color="white"/>
<stop offset="1" stop-color="white" stop-opacity="0.6"/>
</linearGradient>
</defs>
</svg>
