<svg width="48" height="48" viewBox="0 0 48 48" fill="none" xmlns="http://www.w3.org/2000/svg">
<circle cx="24" cy="24" r="23" fill="#FFD477" fill-opacity="0.1"/>
<path d="M37.1002 16.7998C37.1002 16.6817 37.1235 16.5646 37.1687 16.4555C37.2139 16.3463 37.2802 16.2471 37.3637 16.1635C37.4473 16.0799 37.5465 16.0136 37.6556 15.9684C37.7648 15.9232 37.8818 15.8999 38 15.8999C38 15.6613 37.9052 15.4324 37.7365 15.2636C37.5677 15.0949 37.3389 15 37.1002 15H19.9999V32.9998H37.1002C37.3389 32.9998 37.5677 32.905 37.7364 32.7363C37.9051 32.5675 38 32.3387 38 32.1001C37.5029 32.1001 37.1002 31.6971 37.1002 31.2002C37.1002 30.7032 37.5029 30.3003 38 30.3003V28.5003C37.7613 28.5003 37.5325 28.4055 37.3637 28.2367C37.195 28.068 37.1002 27.8391 37.1002 27.6004C37.1002 27.3618 37.195 27.1329 37.3637 26.9642C37.5325 26.7954 37.7613 26.7006 38 26.7006V24.9001C37.8818 24.9001 37.7648 24.8769 37.6556 24.8317C37.5465 24.7864 37.4473 24.7201 37.3637 24.6366C37.2801 24.553 37.2139 24.4538 37.1686 24.3447C37.1234 24.2355 37.1002 24.1185 37.1002 24.0003C37.1002 23.8821 37.1234 23.7651 37.1686 23.656C37.2139 23.5468 37.2801 23.4476 37.3637 23.364C37.4473 23.2805 37.5465 23.2142 37.6556 23.169C37.7648 23.1238 37.8818 23.1005 38 23.1005V21.2999C37.7614 21.2998 37.5327 21.205 37.364 21.0363C37.1953 20.8676 37.1005 20.6388 37.1005 20.4003C37.1005 20.2821 37.1237 20.1651 37.1688 20.0558C37.214 19.9466 37.2802 19.8474 37.3638 19.7638C37.4473 19.6802 37.5465 19.6139 37.6556 19.5686C37.7648 19.5234 37.8818 19.5001 38 19.5V17.6999C37.8818 17.6999 37.7648 17.6766 37.6556 17.6314C37.5464 17.5861 37.4472 17.5198 37.3637 17.4363C37.2801 17.3527 37.2138 17.2534 37.1686 17.1442C37.1234 17.035 37.1002 16.918 37.1002 16.7998ZM32.2215 26.2552H29.6445V28.1878C29.6408 28.3563 29.5712 28.5166 29.4508 28.6344C29.3304 28.7522 29.1686 28.8182 29.0001 28.8182C28.8316 28.8182 28.6698 28.7522 28.5494 28.6344C28.429 28.5166 28.3594 28.3563 28.3557 28.1878V26.2552H25.7788C25.6103 26.2515 25.45 26.182 25.3322 26.0616C25.2144 25.9411 25.1484 25.7794 25.1484 25.6109C25.1484 25.4424 25.2144 25.2806 25.3322 25.1602C25.45 25.0398 25.6103 24.9702 25.7788 24.9665H28.3557V23.6783H25.7788C25.6079 23.6782 25.444 23.6104 25.3232 23.4896C25.2024 23.3688 25.1345 23.2049 25.1344 23.0341C25.1345 22.8632 25.2024 22.6994 25.3232 22.5786C25.444 22.4578 25.6079 22.3899 25.7788 22.3899H28.0891L25.9668 20.2691C25.8459 20.1481 25.7779 19.984 25.7779 19.8129C25.7779 19.6419 25.8459 19.4778 25.9668 19.3568C26.0878 19.2359 26.2519 19.1679 26.423 19.1679C26.594 19.1679 26.7581 19.2359 26.8791 19.3568L28.9998 21.4789L31.1205 19.3568C31.1804 19.2969 31.2515 19.2494 31.3298 19.217C31.408 19.1846 31.4919 19.1679 31.5766 19.1679C31.6613 19.1679 31.7452 19.1846 31.8235 19.217C31.9017 19.2494 31.9728 19.2969 32.0327 19.3568C32.0926 19.4167 32.1402 19.4878 32.1726 19.5661C32.205 19.6444 32.2217 19.7282 32.2217 19.8129C32.2217 19.8977 32.205 19.9815 32.1726 20.0598C32.1402 20.1381 32.0926 20.2092 32.0327 20.2691L29.9106 22.3899H32.2208C32.3892 22.3936 32.5495 22.4631 32.6673 22.5835C32.7851 22.7039 32.851 22.8657 32.851 23.0341C32.851 23.2025 32.7851 23.3643 32.6673 23.4847C32.5495 23.6051 32.3892 23.6746 32.2208 23.6783H29.6442V24.9668H32.2215V24.9665C32.5772 24.9665 32.8655 25.2551 32.8655 25.6109C32.8655 25.9666 32.5772 26.2552 32.2215 26.2552ZM18.2 33H11.8998C11.6611 33 11.4323 32.9051 11.2635 32.7364C11.0948 32.5676 11 32.3387 11 32.1001V25.7999C11.994 25.8002 12.8005 24.9949 12.8008 24.0009C12.8011 23.0067 11.9958 22.2004 11.0014 22.1999H11V15.8999C11 15.6613 11.0948 15.4324 11.2635 15.2636C11.4323 15.0949 11.6611 15 11.8998 15H18.2V33Z" fill="url(#paint0_linear_4459_16153)"/>
<g opacity="0.3" filter="url(#filter0_f_4459_16153)">
<ellipse cx="24" cy="38.5" rx="7" ry="3.5" fill="#FFE1A2"/>
</g>
<defs>
<filter id="filter0_f_4459_16153" x="13" y="31" width="22" height="15" filterUnits="userSpaceOnUse" color-interpolation-filters="sRGB">
<feFlood flood-opacity="0" result="BackgroundImageFix"/>
<feBlend mode="normal" in="SourceGraphic" in2="BackgroundImageFix" result="shape"/>
<feGaussianBlur stdDeviation="2" result="effect1_foregroundBlur_4459_16153"/>
</filter>
<linearGradient id="paint0_linear_4459_16153" x1="24.5" y1="34" x2="24.5" y2="14.9091" gradientUnits="userSpaceOnUse">
<stop stop-color="#C79938"/>
<stop offset="1" stop-color="#FFD477"/>
</linearGradient>
</defs>
</svg>
