<svg width="48" height="48" viewBox="0 0 48 48" fill="none" xmlns="http://www.w3.org/2000/svg">
<circle cx="24" cy="24" r="23" fill="white" fill-opacity="0.06"/>
<path fill-rule="evenodd" clip-rule="evenodd" d="M36 25.2004C36 24.7846 35.8822 24.3774 35.6602 24.0263C35.5066 23.7834 35.3068 23.5733 35.0723 23.4079C34.8378 23.2426 34.5731 23.1252 34.2934 23.0626C34.0137 22.9999 33.7244 22.9932 33.4421 23.0428C33.1599 23.0924 32.8901 23.1973 32.6482 23.3516L23.9771 28.881L15.3545 23.3615C15.0247 23.1504 14.6445 23.0323 14.2536 23.0194C13.8627 23.0064 13.4755 23.0992 13.1326 23.2881C12.7897 23.4769 12.5037 23.7548 12.3044 24.0927C12.1051 24.4305 12 24.816 12 25.2086V32.7143C12 33.5857 12.3448 34.4214 12.9586 35.0376C13.5723 35.6538 14.4047 36 15.2727 36H32.7273C33.5953 36 34.4277 35.6538 35.0414 35.0376C35.6552 34.4214 36 33.5857 36 32.7143V25.2004ZM31.7687 13.9624C31.155 13.3462 30.3225 13 29.4545 13H18.5455C17.6775 13 16.845 13.3462 16.2313 13.9624C15.6175 14.5786 15.2727 15.4143 15.2727 16.2857V21.7619L24.018 27.2381L32.7273 21.7619V16.2857C32.7273 15.4143 32.3825 14.5786 31.7687 13.9624ZM24.0001 22C24.1996 22 24.3911 21.9233 24.5328 21.7867V21.7871L26.4855 19.8996L26.5168 19.8683C26.8322 19.548 27.0057 19.1201 26.9999 18.6767C26.994 18.2332 26.8093 17.8098 26.4855 17.4974C26.1549 17.1788 25.7083 17 25.2428 17C24.7773 17 24.3306 17.1788 24.0001 17.4974C23.6695 17.1788 23.2229 17 22.7574 17C22.2919 17 21.8452 17.1788 21.5147 17.4974C21.1901 17.8104 21.0052 18.2351 21.0001 18.6795C20.995 19.1239 21.17 19.5525 21.4872 19.8725L21.5147 19.8992L23.4673 21.7867C23.609 21.9233 23.8005 22 24.0001 22Z" fill="url(#paint0_linear_4460_15458)"/>
<g opacity="0.3" filter="url(#filter0_f_4460_15458)">
<ellipse cx="24" cy="38.5" rx="7" ry="3.5" fill="white"/>
</g>
<circle cx="39" cy="39" r="7.5" fill="#767676"/>
<path d="M38 36.5385C38 35.9529 38.4596 35.5 39 35.5V34.5C37.8836 34.5 37 35.4247 37 36.5385H38ZM38 37V36.5385H37V37H38ZM40 36.5385V37H41V36.5385H40ZM39 35.5C39.5404 35.5 40 35.9529 40 36.5385H41C41 35.4247 40.1164 34.5 39 34.5V35.5Z" fill="white" fill-opacity="0.7"/>
<path fill-rule="evenodd" clip-rule="evenodd" d="M36 37C35.4477 37 35 37.4477 35 38V42C35 42.5523 35.4477 43 36 43H42C42.5523 43 43 42.5523 43 42V38C43 37.4477 42.5523 37 42 37H36ZM39 41C39.5523 41 40 40.5523 40 40C40 39.4477 39.5523 39 39 39C38.4477 39 38 39.4477 38 40C38 40.5523 38.4477 41 39 41Z" fill="white"/>
<defs>
<filter id="filter0_f_4460_15458" x="13" y="31" width="22" height="15" filterUnits="userSpaceOnUse" color-interpolation-filters="sRGB">
<feFlood flood-opacity="0" result="BackgroundImageFix"/>
<feBlend mode="normal" in="SourceGraphic" in2="BackgroundImageFix" result="shape"/>
<feGaussianBlur stdDeviation="2" result="effect1_foregroundBlur_4460_15458"/>
</filter>
<linearGradient id="paint0_linear_4460_15458" x1="23.7867" y1="37.0734" x2="23.7867" y2="12.6794" gradientUnits="userSpaceOnUse">
<stop stop-color="white" stop-opacity="0.2"/>
<stop offset="1" stop-color="white" stop-opacity="0.5"/>
</linearGradient>
</defs>
</svg>
