<svg width="48" height="48" viewBox="0 0 48 48" fill="none" xmlns="http://www.w3.org/2000/svg">
<circle cx="24" cy="24" r="23" fill="#FFD477" fill-opacity="0.1"/>
<path fill-rule="evenodd" clip-rule="evenodd" d="M25.5696 11.9875C24.7688 10.9736 23.2312 10.9736 22.4304 11.9875L22.123 12.3768C21.5748 13.071 20.6358 13.3226 19.8139 12.9955L19.3531 12.8121C18.1526 12.3344 16.821 13.1032 16.6345 14.3817L16.5629 14.8725C16.4352 15.7478 15.7478 16.4352 14.8725 16.5629L14.3817 16.6345C13.1032 16.821 12.3344 18.1526 12.8121 19.3531L12.9955 19.8139C13.3226 20.6358 13.071 21.5748 12.3768 22.123L11.9875 22.4304C10.9736 23.2312 10.9736 24.7688 11.9875 25.5696L12.3768 25.877C13.071 26.4252 13.3226 27.3643 12.9955 28.1861L12.8121 28.647C12.3344 29.8474 13.1032 31.1791 14.3817 31.3655L14.8725 31.4371C15.7478 31.5648 16.4352 32.2523 16.5629 33.1275L16.6345 33.6183C16.821 34.8968 18.1526 35.6657 19.3531 35.1879L19.8139 35.0045C20.6358 34.6774 21.5748 34.9291 22.123 35.6232L22.4304 36.0125C23.2312 37.0265 24.7688 37.0265 25.5696 36.0125L25.877 35.6232C26.4252 34.9291 27.3643 34.6774 28.1861 35.0045L28.647 35.1879C29.8474 35.6657 31.1791 34.8968 31.3655 33.6183L31.4371 33.1275C31.5648 32.2523 32.2523 31.5648 33.1275 31.4371L33.6183 31.3655C34.8968 31.1791 35.6657 29.8474 35.1879 28.647L35.0045 28.1861C34.6774 27.3643 34.9291 26.4252 35.6232 25.877L36.0125 25.5696C37.0265 24.7688 37.0265 23.2312 36.0125 22.4304L35.6232 22.123C34.9291 21.5748 34.6774 20.6358 35.0045 19.8139L35.1879 19.3531C35.6657 18.1526 34.8968 16.821 33.6183 16.6345L33.1275 16.5629C32.2523 16.4352 31.5648 15.7478 31.4371 14.8725L31.3655 14.3817C31.1791 13.1032 29.8474 12.3344 28.647 12.8121L28.1861 12.9955C27.3643 13.3226 26.4252 13.071 25.877 12.3768L25.5696 11.9875ZM21.148 28.1235C20.9409 28.4822 21.0638 28.9409 21.4225 29.148C21.7812 29.3551 22.2399 29.2322 22.447 28.8735L27.697 19.7802C27.9042 19.4215 27.7812 18.9628 27.4225 18.7557C27.0638 18.5486 26.6051 18.6715 26.398 19.0302L21.148 28.1235ZM22 22.5C22 23.3284 21.3284 24 20.5 24C19.6716 24 19 23.3284 19 22.5C19 21.6716 19.6716 21 20.5 21C21.3284 21 22 21.6716 22 22.5ZM28.5 27C29.3284 27 30 26.3284 30 25.5C30 24.6716 29.3284 24 28.5 24C27.6716 24 27 24.6716 27 25.5C27 26.3284 27.6716 27 28.5 27Z" fill="url(#paint0_linear_4459_16152)"/>
<g opacity="0.3" filter="url(#filter0_f_4459_16152)">
<ellipse cx="24" cy="38.5" rx="7" ry="3.5" fill="#FFE1A2"/>
</g>
<defs>
<filter id="filter0_f_4459_16152" x="13" y="31" width="22" height="15" filterUnits="userSpaceOnUse" color-interpolation-filters="sRGB">
<feFlood flood-opacity="0" result="BackgroundImageFix"/>
<feBlend mode="normal" in="SourceGraphic" in2="BackgroundImageFix" result="shape"/>
<feGaussianBlur stdDeviation="2" result="effect1_foregroundBlur_4459_16152"/>
</filter>
<linearGradient id="paint0_linear_4459_16152" x1="23.773" y1="37.9651" x2="23.773" y2="10.871" gradientUnits="userSpaceOnUse">
<stop stop-color="#C79938"/>
<stop offset="1" stop-color="#FFD477"/>
</linearGradient>
</defs>
</svg>
