<svg width="48" height="48" viewBox="0 0 48 48" fill="none" xmlns="http://www.w3.org/2000/svg">
<circle cx="24" cy="24" r="23" fill="#FFD477" fill-opacity="0.1"/>
<path d="M12.9297 28V33.0299H11C11 33.0299 11.0454 34.0206 11.5078 34.4054C11.7637 34.6183 12.5248 34.9598 12.7773 34.9833C13.1817 35.0209 34.6133 34.9833 34.6133 34.9833C34.6133 34.9833 35.4935 34.9264 35.976 34.6659C36.4584 34.4054 36.78 34.1856 36.8731 33.8682C36.9661 33.5508 37 33.0543 37 33.0543H34.9942V28C34.9942 28 34.2324 29.2208 31.558 29.1964C28.8835 29.172 27.9525 28 27.9525 28C27.9525 28 27.0384 29.1801 24 29.2045C20.9616 29.229 20.0391 28 20.0391 28C20.0391 28 19.2773 29.2045 16.5944 29.2045C13.9115 29.2045 12.9297 28 12.9297 28Z" fill="url(#paint0_linear_4459_16150)"/>
<path d="M15.5811 23.9657C15.5811 23.9657 14.6949 23.9657 13.9206 24.6808C13.1462 25.3959 13 26.0258 13 26.0258C13 26.0258 13.1258 27.2481 14.6692 27.7199C15.8565 28.0829 16.2092 28.0054 16.8976 27.9592C17.5357 27.9165 17.9003 27.8688 18.3 27.7199C18.7074 27.5682 18.9452 27.405 19.2722 26.9367C19.3934 26.7632 19.4442 26.3068 19.5905 26.1536C19.7368 26.0004 19.8056 25.9764 19.9691 25.9864C20.1325 25.9965 20.2811 26.0339 20.4939 26.6558C20.6832 27.2091 21.1306 27.4951 21.8017 27.7199C22.3964 27.9191 22.8427 27.997 24.1075 28C25.4756 28.0032 26.5614 27.632 27.0113 27.2921C27.4845 26.9346 27.4832 26.6346 27.5779 26.4048C27.6725 26.1749 27.8568 25.9669 28.0653 25.9829C28.1991 25.9931 28.4267 26.0259 28.5041 26.2557C28.5815 26.4855 28.702 27.2772 29.4678 27.6007C30.2335 27.9243 30.4146 27.959 31.5585 27.9923C33.0212 28.0349 33.7053 27.6463 34.3031 27.2006C34.8968 26.758 35 26.1109 35 26.1109C35 26.1109 34.8021 25.1916 34.1139 24.6637C33.4255 24.136 32.3672 23.9657 32.3672 23.9657H15.5811ZM20.9499 19.4624V22.1695C20.9499 22.1695 21.036 22.4675 21.2597 22.6547C21.4834 22.842 21.7759 22.9357 21.7759 22.9357H25.2089C25.2089 22.9357 25.5402 22.8281 25.7553 22.6153C25.9704 22.4024 26.0434 22.0248 26.0434 22.0248V18.1174C26.0434 18.1174 25.9746 18.1344 26.1983 17.6917C26.422 17.249 26.878 16.5084 26.878 16.5084C26.878 16.5084 27.0328 16.0912 26.835 15.8444C26.6371 15.5975 26.4994 15.4869 26.293 15.4869C26.0865 15.4869 25.6992 15.7678 24.8303 15.9891C23.9613 16.2105 23.2127 16.3126 22.7137 16.3041C22.3379 16.2977 21.9462 16.3247 21.5945 16.4667C21.206 16.6235 20.8431 16.8809 20.5804 17.2053C20.4412 17.377 20.284 17.5649 20.1951 17.7682C20.1303 17.9162 20.1043 18.0775 20.0876 18.2369C20.0737 18.3697 20.0599 18.5051 20.0827 18.6377C20.1282 18.9023 20.2101 19.1876 20.4423 19.3517C20.623 19.4794 20.9499 19.4624 20.9499 19.4624ZM23.5827 14.8484C23.5388 14.7423 22.8997 14.5283 22.7798 14.4427C21.8731 13.7953 21.8257 12.5018 22.3868 11.622C22.9375 10.7584 23.0407 10.6089 23.2816 10.1492C23.5225 9.68963 23.7031 9.00021 23.7032 9C23.6891 9.05394 24.4565 9.70682 24.5401 9.80308C24.7959 10.0977 25.0093 10.4167 25.1931 10.7594C25.6392 11.5913 26.1064 12.3755 25.8173 13.3521C25.5881 14.1261 24.857 14.6732 24.0732 14.8483C24.0732 14.8483 24.6152 14.1418 24.6324 13.4948C24.6496 12.8478 24.5636 12.2689 24.4518 11.988C24.3399 11.7071 24.1764 11.2474 24.1764 11.2474C24.1764 11.2474 24.0044 11.8601 23.7808 12.1496C23.2661 12.8158 23.0655 13.3582 23.3418 14.2014C23.445 14.5162 23.5826 14.848 23.5827 14.8484Z" fill="url(#paint1_linear_4459_16150)"/>
<g opacity="0.3" filter="url(#filter0_f_4459_16150)">
<ellipse cx="24" cy="38.5" rx="7" ry="3.5" fill="#FFE1A2"/>
</g>
<defs>
<filter id="filter0_f_4459_16150" x="13" y="31" width="22" height="15" filterUnits="userSpaceOnUse" color-interpolation-filters="sRGB">
<feFlood flood-opacity="0" result="BackgroundImageFix"/>
<feBlend mode="normal" in="SourceGraphic" in2="BackgroundImageFix" result="shape"/>
<feGaussianBlur stdDeviation="2" result="effect1_foregroundBlur_4459_16150"/>
</filter>
<linearGradient id="paint0_linear_4459_16150" x1="24" y1="35.3889" x2="24" y2="27.9646" gradientUnits="userSpaceOnUse">
<stop stop-color="#C79938"/>
<stop offset="1" stop-color="#FFD477"/>
</linearGradient>
<linearGradient id="paint1_linear_4459_16150" x1="24" y1="29.0556" x2="24" y2="8.90404" gradientUnits="userSpaceOnUse">
<stop stop-color="#C79938"/>
<stop offset="1" stop-color="#FFD477"/>
</linearGradient>
</defs>
</svg>
