<svg width="48" height="48" viewBox="0 0 48 48" fill="none" xmlns="http://www.w3.org/2000/svg">
<circle cx="24" cy="24" r="23" fill="white" fill-opacity="0.06"/>
<path fill-rule="evenodd" clip-rule="evenodd" d="M21.5719 13.05C21.8733 13.05 22.1587 13.186 22.3485 13.4201L24.8872 16.55C24.5915 16.5 24.2957 16.5 24 16.5C21.5162 16.5 19.1505 17.3501 17.4947 18.9501L14.2235 14.656C13.722 13.9978 14.1914 13.05 15.0189 13.05H21.5719ZM30.5646 19C29.4409 17.9 27.9624 17.15 26.3066 16.7499L24.5323 13.95L25.9516 13H33.0172C33.8381 13 34.3093 13.9344 33.8213 14.5944L30.5646 19ZM33 27C33 31.9706 28.9706 36 24 36C19.0294 36 15 31.9706 15 27C15 22.0294 19.0294 18 24 18C28.9706 18 33 22.0294 33 27ZM23.4309 23H19V23.3705H19.0601C19.5855 23.3705 20.6838 25.0656 22.3511 28.4537C22.8169 29.402 23.185 30.1434 23.4537 30.6824C23.6566 31.1129 24.3925 31.0987 24.6249 30.6824C25.1211 29.5304 25.6095 28.4429 26.0871 27.4226C26.5671 26.4021 26.9996 25.5187 27.3886 24.7705C27.6781 24.2205 27.9368 23.8573 28.1601 23.6762C28.3855 23.4972 28.6646 23.3951 29 23.3705V23H25.5806V23.3704C25.8682 23.4006 26.0728 23.4654 26.1971 23.5639C26.3188 23.6606 26.3808 23.8079 26.3808 24.0029C26.3808 24.2366 26.2609 24.6651 26.0212 25.2903C25.781 25.9137 25.3342 26.9308 24.6846 28.3412C24.0621 27.1748 23.5801 26.2038 23.2366 25.429C22.8931 24.653 22.7216 24.1453 22.7216 23.9063C22.7216 23.7377 22.7733 23.6147 22.8766 23.5358C22.9779 23.4566 23.1643 23.4006 23.4309 23.3652V23Z" fill="url(#paint0_linear_4460_15459)"/>
<g opacity="0.3" filter="url(#filter0_f_4460_15459)">
<ellipse cx="24" cy="38.5" rx="7" ry="3.5" fill="white"/>
</g>
<circle cx="39" cy="39" r="7.5" fill="#767676"/>
<path d="M38 36.5385C38 35.9529 38.4596 35.5 39 35.5V34.5C37.8836 34.5 37 35.4247 37 36.5385H38ZM38 37V36.5385H37V37H38ZM40 36.5385V37H41V36.5385H40ZM39 35.5C39.5404 35.5 40 35.9529 40 36.5385H41C41 35.4247 40.1164 34.5 39 34.5V35.5Z" fill="white" fill-opacity="0.7"/>
<path fill-rule="evenodd" clip-rule="evenodd" d="M36 37C35.4477 37 35 37.4477 35 38V42C35 42.5523 35.4477 43 36 43H42C42.5523 43 43 42.5523 43 42V38C43 37.4477 42.5523 37 42 37H36ZM39 41C39.5523 41 40 40.5523 40 40C40 39.4477 39.5523 39 39 39C38.4477 39 38 39.4477 38 40C38 40.5523 38.4477 41 39 41Z" fill="white"/>
<defs>
<filter id="filter0_f_4460_15459" x="13" y="31" width="22" height="15" filterUnits="userSpaceOnUse" color-interpolation-filters="sRGB">
<feFlood flood-opacity="0" result="BackgroundImageFix"/>
<feBlend mode="normal" in="SourceGraphic" in2="BackgroundImageFix" result="shape"/>
<feGaussianBlur stdDeviation="2" result="effect1_foregroundBlur_4460_15459"/>
</filter>
<linearGradient id="paint0_linear_4460_15459" x1="23.8403" y1="37.0734" x2="23.8403" y2="12.6794" gradientUnits="userSpaceOnUse">
<stop stop-color="white" stop-opacity="0.2"/>
<stop offset="1" stop-color="white" stop-opacity="0.5"/>
</linearGradient>
</defs>
</svg>
