<svg width="48" height="48" viewBox="0 0 48 48" fill="none" xmlns="http://www.w3.org/2000/svg">
<circle cx="24" cy="24" r="23" fill="white" fill-opacity="0.06"/>
<path fill-rule="evenodd" clip-rule="evenodd" d="M12 23.7726C12 17.2105 17.4341 12 24.0025 12C30.5646 12 36 17.4366 36 23.9975C36 30.5634 30.5684 36 24.0025 36C17.4354 36 12 30.3373 12 23.7726ZM24.6771 26.4811H27.3495C27.7185 26.4811 28.0175 26.1764 28.0175 25.8009C28.0175 25.4254 27.7185 25.1211 27.3495 25.1211H24.6768V23.761H27.3489C27.5235 23.7571 27.6897 23.6837 27.8119 23.5566C27.934 23.4295 28.0024 23.2588 28.0024 23.081C28.0024 22.9032 27.934 22.7325 27.8119 22.6054C27.6897 22.4783 27.5235 22.4049 27.3489 22.401H24.9531L27.1538 20.1623C27.216 20.0991 27.2652 20.024 27.2989 19.9414C27.3325 19.8588 27.3498 19.7703 27.3498 19.6809C27.3498 19.5915 27.3325 19.5029 27.2989 19.4203C27.2652 19.3377 27.216 19.2626 27.1538 19.1994C27.0917 19.1362 27.018 19.086 26.9368 19.0518C26.8557 19.0176 26.7687 19 26.6808 19C26.593 19 26.506 19.0176 26.4248 19.0518C26.3437 19.086 26.2699 19.1362 26.2078 19.1994L24.0086 21.4394L21.8093 19.1994C21.6839 19.0717 21.5137 19 21.3363 19C21.1589 19 20.9887 19.0717 20.8633 19.1994C20.7378 19.3271 20.6674 19.5003 20.6674 19.6809C20.6674 19.8615 20.7378 20.0346 20.8633 20.1623L23.0642 22.401H20.6682C20.491 22.401 20.3211 22.4727 20.1958 22.6002C20.0705 22.7277 20.0001 22.9006 20 23.081C20.0001 23.2613 20.0705 23.4343 20.1958 23.5618C20.3211 23.6893 20.491 23.7609 20.6682 23.761H23.3407V25.1208H20.6682C20.4935 25.1247 20.3273 25.1981 20.2051 25.3252C20.083 25.4523 20.0145 25.6231 20.0145 25.8009C20.0145 25.9788 20.083 26.1495 20.2051 26.2767C20.3273 26.4038 20.4935 26.4772 20.6682 26.4811H23.3407V28.521C23.3445 28.6988 23.4166 28.868 23.5415 28.9924C23.6664 29.1168 23.8342 29.1864 24.0089 29.1864C24.1836 29.1864 24.3514 29.1168 24.4763 28.9924C24.6012 28.868 24.6733 28.6988 24.6771 28.521V26.4811Z" fill="url(#paint0_linear_4460_15461)"/>
<g opacity="0.3" filter="url(#filter0_f_4460_15461)">
<ellipse cx="24" cy="38.5" rx="7" ry="3.5" fill="white"/>
</g>
<circle cx="39" cy="39" r="7.5" fill="#767676"/>
<path d="M38 36.5385C38 35.9529 38.4596 35.5 39 35.5V34.5C37.8836 34.5 37 35.4247 37 36.5385H38ZM38 37V36.5385H37V37H38ZM40 36.5385V37H41V36.5385H40ZM39 35.5C39.5404 35.5 40 35.9529 40 36.5385H41C41 35.4247 40.1164 34.5 39 34.5V35.5Z" fill="white" fill-opacity="0.7"/>
<path fill-rule="evenodd" clip-rule="evenodd" d="M36 37C35.4477 37 35 37.4477 35 38V42C35 42.5523 35.4477 43 36 43H42C42.5523 43 43 42.5523 43 42V38C43 37.4477 42.5523 37 42 37H36ZM39 41C39.5523 41 40 40.5523 40 40C40 39.4477 39.5523 39 39 39C38.4477 39 38 39.4477 38 40C38 40.5523 38.4477 41 39 41Z" fill="white"/>
<defs>
<filter id="filter0_f_4460_15461" x="13" y="31" width="22" height="15" filterUnits="userSpaceOnUse" color-interpolation-filters="sRGB">
<feFlood flood-opacity="0" result="BackgroundImageFix"/>
<feBlend mode="normal" in="SourceGraphic" in2="BackgroundImageFix" result="shape"/>
<feGaussianBlur stdDeviation="2" result="effect1_foregroundBlur_4460_15461"/>
</filter>
<linearGradient id="paint0_linear_4460_15461" x1="23.7867" y1="37.12" x2="23.7867" y2="11.6655" gradientUnits="userSpaceOnUse">
<stop stop-color="white" stop-opacity="0.2"/>
<stop offset="1" stop-color="white" stop-opacity="0.5"/>
</linearGradient>
</defs>
</svg>
