<svg width="48" height="48" viewBox="0 0 48 48" fill="none" xmlns="http://www.w3.org/2000/svg">
<circle cx="24" cy="24" r="23" fill="#FFD477" fill-opacity="0.1"/>
<path d="M13.1667 24C13.1667 18 18 13.1667 24 13.1667C30 13.1667 34.8333 18 34.8333 24V25.0834H37.3333V24C37.3333 16.6667 31.3334 10.6667 24 10.6667C16.6667 10.6667 10.6667 16.6667 10.6667 24C10.6667 31.1667 16.3334 37.0833 23.5 37.3333L23.5834 34.8333C17.75 34.5833 13.1667 29.8334 13.1667 24Z" fill="url(#paint0_linear_4459_16151)"/>
<path d="M25.6666 18.5833C25.6666 17.9166 25.0833 17.3333 24.4166 17.3333C23.75 17.3333 23.1666 17.9166 23.1666 18.5833V23.1666H18.5833C17.9166 23.1666 17.3333 23.75 17.3333 24.4166C17.3333 25.0833 17.9166 25.6666 18.5833 25.6666H24.4166C25.0833 25.6666 25.6666 25.0833 25.6666 24.4166V18.5833ZM31.0833 28.4166C30.8333 28.1666 30.5 28 30.0833 27.9166C29.75 27.8333 29.3333 27.75 28.9166 27.75C28.5 27.75 28.0833 27.8333 27.75 27.9166C27.4166 28 27.0833 28.1666 26.75 28.4166C26.5 28.6666 26.25 28.9166 26.0833 29.25C25.9166 29.5833 25.8333 30 25.75 30.4166L27.4166 30.5833C27.5 30.1666 27.6666 29.9166 27.9166 29.6666C28.1666 29.4166 28.5 29.3333 28.9166 29.3333C29.0833 29.3333 29.25 29.3333 29.4166 29.4166C29.5833 29.5 29.75 29.5833 29.8333 29.6666C29.9166 29.75 30.0833 29.9166 30.1666 30.0833C30.25 30.25 30.25 30.4166 30.25 30.5833C30.25 30.75 30.25 30.9166 30.1666 31.0833C30.0833 31.25 30 31.3333 29.9166 31.5C29.8333 31.6666 29.75 31.75 29.5833 31.9166L29.25 32.25L25.6666 35.6666V37.3333H31.5V35.6666H27.9166L30.5 33.25C30.9166 32.8333 31.25 32.4166 31.5833 32C31.9166 31.5833 32 31.0833 32 30.5C32 30.0833 31.9166 29.6666 31.75 29.3333C31.5833 29 31.3333 28.5833 31.0833 28.4166ZM38.1666 34V28.1666H36.5L32.3333 34V35.6666H36.5V37.3333H38.1666V35.6666H39V34H38.1666ZM36.5 34H34L36.5 30.6666V34Z" fill="url(#paint1_linear_4459_16151)"/>
<g opacity="0.3" filter="url(#filter0_f_4459_16151)">
<ellipse cx="24" cy="38.5" rx="7" ry="3.5" fill="#FFE1A2"/>
</g>
<defs>
<filter id="filter0_f_4459_16151" x="13" y="31" width="22" height="15" filterUnits="userSpaceOnUse" color-interpolation-filters="sRGB">
<feFlood flood-opacity="0" result="BackgroundImageFix"/>
<feBlend mode="normal" in="SourceGraphic" in2="BackgroundImageFix" result="shape"/>
<feGaussianBlur stdDeviation="2" result="effect1_foregroundBlur_4459_16151"/>
</filter>
<linearGradient id="paint0_linear_4459_16151" x1="24" y1="38.8148" x2="24" y2="10.532" gradientUnits="userSpaceOnUse">
<stop stop-color="#C79938"/>
<stop offset="1" stop-color="#FFD477"/>
</linearGradient>
<linearGradient id="paint1_linear_4459_16151" x1="28.1666" y1="38.4444" x2="28.1666" y2="17.2323" gradientUnits="userSpaceOnUse">
<stop stop-color="#C79938"/>
<stop offset="1" stop-color="#FFD477"/>
</linearGradient>
</defs>
</svg>
