<svg width="48" height="48" viewBox="0 0 48 48" fill="none" xmlns="http://www.w3.org/2000/svg">
<circle cx="24" cy="24" r="23" fill="#FFD477" fill-opacity="0.1"/>
<path d="M37.0031 26.9635C35.4206 26.1385 28.7419 30.7528 27.5138 30.7528C27.5138 30.7528 25.2309 31.41 22.065 29.5978C18.9 27.9506 16.6162 26.3025 16.6162 26.3025C16.6162 26.3025 14.5069 25.1494 12.0469 26.6316C11.364 27.0522 10.6599 27.4374 9.9375 27.7856V36.1885C9.9375 36.1885 11.8687 34.0472 14.5078 34.0472C17.1431 34.0472 23.1188 36.6853 23.1188 36.6853C23.1188 36.6853 25.4016 37.6753 27.1594 36.6853L37.5262 29.4338C38.2341 29.1056 38.4075 27.6216 37.0031 26.9635Z" fill="url(#paint0_linear_4459_16157)"/>
<path fill-rule="evenodd" clip-rule="evenodd" d="M17 19.8295C17 14.9079 21.0756 11 26.0019 11C30.9235 11 35 15.0775 35 19.9981C35 24.9225 30.9263 29 26.0019 29C21.0765 29 17 24.7529 17 19.8295ZM26.6771 22.4811H29.3495C29.7185 22.4811 30.0175 22.1764 30.0175 21.8009C30.0175 21.4254 29.7185 21.1211 29.3495 21.1211H26.6768V19.761H29.3489C29.5235 19.7571 29.6897 19.6837 29.8119 19.5566C29.934 19.4295 30.0024 19.2588 30.0024 19.081C30.0024 18.9032 29.934 18.7325 29.8119 18.6054C29.6897 18.4783 29.5235 18.4049 29.3489 18.401H26.9531L29.1538 16.1623C29.216 16.0991 29.2652 16.024 29.2989 15.9414C29.3325 15.8588 29.3498 15.7703 29.3498 15.6809C29.3498 15.5915 29.3325 15.5029 29.2989 15.4203C29.2652 15.3377 29.216 15.2626 29.1538 15.1994C29.0917 15.1362 29.018 15.086 28.9368 15.0518C28.8557 15.0176 28.7687 15 28.6808 15C28.593 15 28.506 15.0176 28.4248 15.0518C28.3437 15.086 28.2699 15.1362 28.2078 15.1994L26.0086 17.4394L23.8093 15.1994C23.6839 15.0717 23.5137 15 23.3363 15C23.1589 15 22.9887 15.0717 22.8633 15.1994C22.7378 15.3271 22.6674 15.5003 22.6674 15.6809C22.6674 15.8615 22.7378 16.0346 22.8633 16.1623L25.0642 18.401H22.6682C22.491 18.401 22.3211 18.4727 22.1958 18.6002C22.0705 18.7277 22.0001 18.9006 22 19.081C22.0001 19.2613 22.0705 19.4343 22.1958 19.5618C22.3211 19.6893 22.491 19.7609 22.6682 19.761H25.3407V21.1208H22.6682C22.4935 21.1247 22.3273 21.1981 22.2051 21.3252C22.083 21.4523 22.0145 21.6231 22.0145 21.8009C22.0145 21.9788 22.083 22.1495 22.2051 22.2767C22.3273 22.4038 22.4935 22.4772 22.6682 22.4811H25.3407V24.521C25.3445 24.6988 25.4166 24.868 25.5415 24.9924C25.6664 25.1168 25.8342 25.1864 26.0089 25.1864C26.1836 25.1864 26.3514 25.1168 26.4763 24.9924C26.6012 24.868 26.6733 24.6988 26.6771 24.521V22.4811Z" fill="url(#paint1_linear_4459_16157)"/>
<g opacity="0.3" filter="url(#filter0_f_4459_16157)">
<ellipse cx="24" cy="38.5" rx="7" ry="3.5" fill="#FFE1A2"/>
</g>
<defs>
<filter id="filter0_f_4459_16157" x="13" y="31" width="22" height="15" filterUnits="userSpaceOnUse" color-interpolation-filters="sRGB">
<feFlood flood-opacity="0" result="BackgroundImageFix"/>
<feBlend mode="normal" in="SourceGraphic" in2="BackgroundImageFix" result="shape"/>
<feGaussianBlur stdDeviation="2" result="effect1_foregroundBlur_4459_16157"/>
</filter>
<linearGradient id="paint0_linear_4459_16157" x1="23.9999" y1="37.7503" x2="23.9999" y2="25.8184" gradientUnits="userSpaceOnUse">
<stop stop-color="#C79938"/>
<stop offset="1" stop-color="#FFD477"/>
</linearGradient>
<linearGradient id="paint1_linear_4459_16157" x1="26" y1="30" x2="26" y2="10.9091" gradientUnits="userSpaceOnUse">
<stop stop-color="#C79938"/>
<stop offset="1" stop-color="#FFD477"/>
</linearGradient>
</defs>
</svg>
