<svg width="34" height="34" viewBox="0 0 34 34" fill="none" xmlns="http://www.w3.org/2000/svg">
<path d="M9.714 22H1.944L4.646 11.92H6.746L4.492 20.32H10.162L9.714 22Z" fill="url(#paint0_linear_4399_15140)"/>
<path d="M14.8347 22H11.3487L10.9427 11.92H13.0427L13.5467 20.488L18.8947 11.92H20.9947L14.8347 22Z" fill="url(#paint1_linear_4399_15140)"/>
<path d="M19.2043 22H17.0903L17.6363 20.026H19.7362L19.2043 22Z" fill="url(#paint2_linear_4399_15140)"/>
<path d="M28.7099 22H22.2699L22.7179 20.32H28.0379L28.9479 16.862H23.7259L25.0419 11.92H32.6719L32.2239 13.6H26.6659L26.2319 15.238H30.2919L31.1599 16.162L29.8859 21.3L28.7099 22Z" fill="url(#paint3_linear_4399_15140)"/>
<defs>
<linearGradient id="paint0_linear_4399_15140" x1="2.04945" y1="7.4219" x2="34.6506" y2="15.05" gradientUnits="userSpaceOnUse">
<stop stop-color="#FFE1CE"/>
<stop offset="1" stop-color="#FFAB70"/>
</linearGradient>
<linearGradient id="paint1_linear_4399_15140" x1="2.04945" y1="7.4219" x2="34.6506" y2="15.05" gradientUnits="userSpaceOnUse">
<stop stop-color="#FFE1CE"/>
<stop offset="1" stop-color="#FFAB70"/>
</linearGradient>
<linearGradient id="paint2_linear_4399_15140" x1="2.04945" y1="7.4219" x2="34.6506" y2="15.05" gradientUnits="userSpaceOnUse">
<stop stop-color="#FFE1CE"/>
<stop offset="1" stop-color="#FFAB70"/>
</linearGradient>
<linearGradient id="paint3_linear_4399_15140" x1="2.04945" y1="7.4219" x2="34.6506" y2="15.05" gradientUnits="userSpaceOnUse">
<stop stop-color="#FFE1CE"/>
<stop offset="1" stop-color="#FFAB70"/>
</linearGradient>
</defs>
</svg>
