<svg width="34" height="34" viewBox="0 0 34 34" fill="none" xmlns="http://www.w3.org/2000/svg">
<path d="M9.714 22H1.944L4.646 11.92H6.746L4.492 20.32H10.162L9.714 22Z" fill="url(#paint0_linear_4399_15137)"/>
<path d="M14.8347 22H11.3487L10.9427 11.92H13.0427L13.5467 20.488L18.8947 11.92H20.9947L14.8347 22Z" fill="url(#paint1_linear_4399_15137)"/>
<path d="M19.2043 22H17.0903L17.6363 20.026H19.7362L19.2043 22Z" fill="url(#paint2_linear_4399_15137)"/>
<path d="M28.9059 22H22.0739L22.5219 20.32H28.0659L28.7939 17.59H23.5299L23.9919 15.91H29.2559L29.8719 13.6H24.3279L24.7759 11.92H31.6079L32.2379 12.62L31.2439 16.022L30.4319 16.54L30.9639 17.618L29.9419 21.174L28.9059 22Z" fill="url(#paint3_linear_4399_15137)"/>
<defs>
<linearGradient id="paint0_linear_4399_15137" x1="2.04945" y1="7.4219" x2="34.6506" y2="15.05" gradientUnits="userSpaceOnUse">
<stop stop-color="#FFE1CE"/>
<stop offset="1" stop-color="#FFAB70"/>
</linearGradient>
<linearGradient id="paint1_linear_4399_15137" x1="2.04945" y1="7.4219" x2="34.6506" y2="15.05" gradientUnits="userSpaceOnUse">
<stop stop-color="#FFE1CE"/>
<stop offset="1" stop-color="#FFAB70"/>
</linearGradient>
<linearGradient id="paint2_linear_4399_15137" x1="2.04945" y1="7.4219" x2="34.6506" y2="15.05" gradientUnits="userSpaceOnUse">
<stop stop-color="#FFE1CE"/>
<stop offset="1" stop-color="#FFAB70"/>
</linearGradient>
<linearGradient id="paint3_linear_4399_15137" x1="2.04945" y1="7.4219" x2="34.6506" y2="15.05" gradientUnits="userSpaceOnUse">
<stop stop-color="#FFE1CE"/>
<stop offset="1" stop-color="#FFAB70"/>
</linearGradient>
</defs>
</svg>
