<svg width="34" height="34" viewBox="0 0 34 34" fill="none" xmlns="http://www.w3.org/2000/svg">
<path d="M9.714 22H1.944L4.646 11.92H6.746L4.492 20.32H10.162L9.714 22Z" fill="white" fill-opacity="0.33"/>
<path d="M14.8347 22H11.3487L10.9427 11.92H13.0427L13.5467 20.488L18.8947 11.92H20.9947L14.8347 22Z" fill="white" fill-opacity="0.33"/>
<path d="M19.2043 22H17.0903L17.6363 20.026H19.7362L19.2043 22Z" fill="white" fill-opacity="0.33"/>
<path d="M24.1739 22H22.0879L23.7399 15.896H29.9839L29.6479 17.576H25.4059L24.1739 22ZM29.9979 22H24.8599L25.3359 20.32H30.4459L29.9979 22ZM31.0759 17.576H29.1019L30.1519 13.6H24.2999L24.7479 11.92H32.6719L31.0759 17.576Z" fill="white" fill-opacity="0.33"/>
</svg>
